<svg width="24" height="24" viewBox="0 0 24 24" fill="none" xmlns="http://www.w3.org/2000/svg">
<path d="M20 12C20 16.4183 16.4183 20 12 20C7.58172 20 4 16.4183 4 12C4 7.58172 7.58172 4 12 4C16.4183 4 20 7.58172 20 12Z" fill="#D9D9D9"/>
<path d="M10.8851 12.2409L9.21286 10.5687C8.905 10.2608 8.905 9.76166 9.21286 9.4538C9.52072 9.14595 10.0199 9.14595 10.3277 9.4538L12 11.1261L13.6723 9.4538C13.9801 9.14595 14.4793 9.14595 14.7871 9.4538C15.095 9.76166 15.095 10.2608 14.7871 10.5687L13.1149 12.2409L14.7871 13.9132C15.095 14.2211 15.095 14.7202 14.7871 15.0281C14.4793 15.3359 13.9801 15.3359 13.6723 15.0281L12 13.3558L10.3277 15.0281C10.0199 15.3359 9.52072 15.3359 9.21286 15.0281C8.905 14.7202 8.905 14.2211 9.21286 13.9132L10.8851 12.2409Z" fill="black"/>
</svg>
