<svg width="8" height="12" viewBox="0 0 8 12" fill="none" xmlns="http://www.w3.org/2000/svg">
<path d="M7.04478 6.77611C7.53733 6.37592 7.53733 5.62408 7.04478 5.22389L1.63059 0.824856C0.977076 0.293875 -4.76756e-07 0.758936 -4.76756e-07 1.60097V1.99246C-4.76756e-07 2.28872 0.131362 2.56973 0.358672 2.75973L4.12283 5.90603C4.14022 5.92056 4.15026 5.94206 4.15026 5.96471V5.96471C4.15026 5.9871 4.14045 6.00837 4.12342 6.0229L0.351038 9.24065C0.128295 9.43064 -4.76756e-07 9.7087 -4.76756e-07 10.0015V10.399C-4.76756e-07 11.2411 0.977078 11.7061 1.63059 11.1751L7.04478 6.77611Z" fill="black"/>
</svg>
