<svg width="24" height="24" viewBox="0 0 24 24" fill="none" xmlns="http://www.w3.org/2000/svg">
<path fill-rule="evenodd" clip-rule="evenodd" d="M7.60554 18.5141C7.86649 18.5109 8.11586 18.4059 8.30039 18.2213L16.9239 9.59783C17.3144 9.20731 17.3144 8.57414 16.9239 8.18362L14.3624 5.62213C13.9719 5.23161 13.3387 5.23161 12.9482 5.62213L4.32469 14.2456C4.14015 14.4301 4.03507 14.6795 4.03187 14.9405L4.00008 17.5337C3.99319 18.0956 4.45042 18.5528 5.01226 18.5459L7.60554 18.5141ZM7.47552 17.0258L15.5441 8.95727L13.6162 7.02934L5.54759 15.0979L5.51321 17.0328L7.47552 17.0258Z" fill="black"/>
<path d="M15.7067 3.29291C16.0972 2.90238 16.7304 2.90238 17.1209 3.29291L19.4432 5.61513C19.8337 6.00566 19.8337 6.63882 19.4432 7.02935C19.0526 7.41987 18.4195 7.41987 18.0289 7.02935L15.7067 4.70712C15.3162 4.3166 15.3162 3.68343 15.7067 3.29291Z" fill="black"/>
<rect x="4.5" y="20.5" width="15" height="1" rx="0.5" stroke="black"/>
</svg>
