<svg width="24" height="24" viewBox="0 0 24 24" fill="none" xmlns="http://www.w3.org/2000/svg">
<path d="M4.31819 5.85458C3.89394 5.43033 3.89394 4.74248 4.31819 4.31822C4.74244 3.89397 5.4303 3.89397 5.85455 4.31822L12 10.4636L18.1454 4.31819C18.5697 3.89394 19.2576 3.89394 19.6818 4.31819C20.1061 4.74244 20.1061 5.4303 19.6818 5.85455L13.5363 12L19.6818 18.1455C20.106 18.5697 20.106 19.2576 19.6818 19.6818C19.2575 20.1061 18.5697 20.1061 18.1454 19.6818L12 13.5364L5.85457 19.6818C5.43031 20.106 4.74246 20.106 4.31821 19.6818C3.89395 19.2575 3.89395 18.5697 4.31821 18.1454L10.4636 12L4.31819 5.85458Z" fill="#1F1F1F"/>
</svg>
