<svg width="24" height="24" viewBox="0 0 24 24" fill="none" xmlns="http://www.w3.org/2000/svg">
<path d="M13 13C13 13.5523 12.5523 14 12 14C11.4477 14 11 13.5523 11 13V6.73333L9.1815 8.38211C8.79627 8.73138 8.20764 8.72713 7.82749 8.37233L7.78893 8.33633C7.36327 7.93905 7.36569 7.26356 7.79419 6.86935L11.3229 3.62289C11.7057 3.2708 12.2943 3.2708 12.6771 3.62289L16.2058 6.86935C16.6343 7.26356 16.6367 7.93905 16.2111 8.33633L16.1725 8.37233C15.7924 8.72713 15.2037 8.73138 14.8185 8.38211L13 6.73333V13Z" fill="black"/>
<path d="M4 13C4 11.8954 4.89543 11 6 11H7C7.55228 11 8 11.4477 8 12C8 12.5523 7.55228 13 7 13H6V18H12H18V13H17C16.4477 13 16 12.5523 16 12C16 11.4477 16.4477 11 17 11H18C19.1046 11 20 11.8954 20 13V18C20 19.1046 19.1046 20 18 20H12H6C4.89543 20 4 19.1046 4 18V13Z" fill="black"/>
</svg>
