<svg width="24" height="24" viewBox="0 0 24 24" fill="none" xmlns="http://www.w3.org/2000/svg">
<path d="M7.14572 6.24769C6.7552 5.85717 6.12203 5.85717 5.73151 6.24769L5.2477 6.7315C4.85718 7.12203 4.85718 7.75519 5.2477 8.14572L5.90127 8.79928C6.39992 8.04638 7.04639 7.39992 7.79929 6.90125L7.14572 6.24769Z" fill="black"/>
<path fill-rule="evenodd" clip-rule="evenodd" d="M7.79929 6.90125C7.04639 7.39992 6.39992 8.04638 5.90127 8.79928C5.43476 9.50363 5.09762 10.3011 4.92371 11.1579C4.83569 11.5915 4.78948 12.0404 4.78948 12.5C4.78948 12.9596 4.83569 13.4085 4.92372 13.8421C5.09764 14.6989 5.43478 15.4964 5.90129 16.2007C6.39995 16.9536 7.04641 17.6001 7.79931 18.0987C8.50366 18.5652 9.30114 18.9024 10.1579 19.0763C10.5915 19.1643 11.0404 19.2105 11.5 19.2105C11.9596 19.2105 12.4085 19.1643 12.8421 19.0763C13.6989 18.9024 14.4964 18.5652 15.2007 18.0987C15.9536 17.6001 16.6001 16.9536 17.0987 16.2007C17.5652 15.4964 17.9024 14.6989 18.0763 13.8421C18.1643 13.4085 18.2105 12.9596 18.2105 12.5C18.2105 12.0404 18.1643 11.5915 18.0763 11.1579C17.9024 10.3011 17.5652 9.50363 17.0987 8.79928C16.6001 8.04638 15.9536 7.39992 15.2007 6.90126C14.4964 6.43475 13.6989 6.0976 12.8421 5.92368C12.4085 5.83566 11.9596 5.78945 11.5 5.78945C11.0404 5.78945 10.5915 5.83566 10.1579 5.92368C9.30113 6.0976 8.50363 6.43475 7.79929 6.90125ZM11.5 17.421C9.24747 17.421 7.34841 15.9076 6.7642 13.8421C6.64353 13.4155 6.57895 12.9653 6.57895 12.5C6.57895 12.0347 6.64352 11.5845 6.76419 11.1579C6.86947 10.7856 7.01746 10.4313 7.20254 10.1006C7.64719 9.30587 8.30588 8.64718 9.10055 8.20252C9.81041 7.80533 10.6288 7.57892 11.5 7.57892C13.7526 7.57892 15.6516 9.09238 16.2358 11.1579C16.3565 11.5845 16.4211 12.0347 16.4211 12.5C16.4211 12.9653 16.3565 13.4155 16.2358 13.8421C15.6516 15.9076 13.7525 17.421 11.5 17.421Z" fill="black"/>
<path d="M4 11.1579C3.44772 11.1579 3 11.6056 3 12.1579L3 12.8421C3 13.3944 3.44772 13.8421 4 13.8421H4.92372C4.83569 13.4085 4.78948 12.9596 4.78948 12.5C4.78948 12.0404 4.83569 11.5915 4.92371 11.1579H4Z" fill="black"/>
<path d="M5.24769 16.8543C4.85717 17.2448 4.85717 17.878 5.24769 18.2685L5.7315 18.7523C6.12203 19.1428 6.75519 19.1428 7.14572 18.7523L7.79931 18.0987C7.04641 17.6001 6.39995 16.9536 5.90129 16.2007L5.24769 16.8543Z" fill="black"/>
<path d="M15.8543 18.7523C16.2448 19.1428 16.878 19.1428 17.2685 18.7523L17.7523 18.2685C18.1428 17.878 18.1428 17.2448 17.7523 16.8543L17.0987 16.2007C16.6001 16.9536 15.9536 17.6001 15.2007 18.0987L15.8543 18.7523Z" fill="black"/>
<path d="M19 13.8421C19.5523 13.8421 20 13.3944 20 12.8421V12.1579C20 11.6056 19.5523 11.1579 19 11.1579H18.0763C18.1643 11.5915 18.2105 12.0404 18.2105 12.5C18.2105 12.9596 18.1643 13.4085 18.0763 13.8421H19Z" fill="black"/>
<path d="M17.7523 8.14571C18.1428 7.75519 18.1428 7.12202 17.7523 6.7315L17.2685 6.24769C16.878 5.85716 16.2448 5.85716 15.8543 6.24769L15.2007 6.90126C15.9536 7.39992 16.6001 8.04638 17.0987 8.79928L17.7523 8.14571Z" fill="black"/>
<path d="M12.8421 5C12.8421 4.44772 12.3944 4 11.8421 4H11.1579C10.6056 4 10.1579 4.44772 10.1579 5V5.92368C10.5915 5.83566 11.0404 5.78945 11.5 5.78945C11.9596 5.78945 12.4085 5.83566 12.8421 5.92368V5Z" fill="black"/>
<path d="M11.5 19.2105C11.0404 19.2105 10.5915 19.1643 10.1579 19.0763V20C10.1579 20.5523 10.6056 21 11.1579 21H11.8421C12.3944 21 12.8421 20.5523 12.8421 20V19.0763C12.4085 19.1643 11.9596 19.2105 11.5 19.2105Z" fill="black"/>
</svg>
