<svg width="189" height="53" viewBox="0 0 189 53" fill="none" xmlns="http://www.w3.org/2000/svg">
<path d="M26.5 -1.15835e-06C11.8645 -5.18612e-07 5.18611e-07 11.8644 1.15835e-06 26.5C1.79809e-06 41.1355 11.8645 53 26.5 53C41.1355 53 53 41.1355 53 26.5C53 11.8644 41.1355 -1.79809e-06 26.5 -1.15835e-06Z" fill="black"/>
<path d="M64.7778 27.5239L64.7778 48.8791C64.7778 52.0486 68.5902 53.939 71.4363 52.1809L91.3539 39.8778C92.7709 39.0025 94.613 38.9883 96.0455 39.8416L117.068 52.3634C119.918 54.0611 123.667 52.1649 123.667 49.0253L123.667 27.5239C123.667 25.3323 121.749 23.5557 119.384 23.5557L69.0607 23.5557C66.6953 23.5557 64.7778 25.3323 64.7778 27.5239Z" fill="black"/>
<path d="M135.444 26.5C135.444 41.1355 147.309 53 161.944 53C176.58 53 188.444 41.1355 188.444 26.5L188.444 1.696C188.444 0.759325 187.685 -6.63907e-07 186.748 -6.11794e-07L137.14 2.11678e-06C136.204 2.16889e-06 135.444 0.759327 135.444 1.696L135.444 26.5Z" fill="black"/>
</svg>
