<svg width="24" height="24" viewBox="0 0 24 24" fill="none" xmlns="http://www.w3.org/2000/svg">
<path d="M5.49255 10.6947V14.0117C5.11276 14.5228 5.06218 15.1638 5.27657 15.702C5.5367 16.355 6.17968 16.85 7.00263 16.85H16.9974C17.8203 16.85 18.4633 16.355 18.7234 15.702C18.9378 15.1638 18.8872 14.5228 18.5075 14.0117V10.6947C18.5075 7.4909 15.4387 5.15 12 5.15C8.56134 5.15 5.49255 7.4909 5.49255 10.6947Z" stroke="black" stroke-width="1.7"/>
<path d="M13.5 20.5C13.5 21.3175 12.9206 22 12.0001 22C11.0796 22 10.5 21.3175 10.5 20.5C10.5 19.6825 11.0796 19 12.0001 19C12.9206 19 13.5 19.6825 13.5 20.5Z" fill="black"/>
</svg>
