<svg width="24" height="24" viewBox="0 0 24 24" fill="none" xmlns="http://www.w3.org/2000/svg">
<path fill-rule="evenodd" clip-rule="evenodd" d="M5.1405 10.124C5.0659 9.52718 5.53128 9 6.13278 9H17.8195C18.4375 9 18.9075 9.55487 18.8059 10.1644L17.1393 20.1644C17.0589 20.6466 16.6417 21 16.1529 21H11.75H7.38278C6.87846 21 6.45306 20.6245 6.3905 20.124L5.1405 10.124ZM15.5 19.5H11.75H8L7 10.5H17L15.5 19.5Z" fill="black"/>
<path d="M5 6C5 5.44772 5.44772 5 6 5H11V4C11 3.44772 11.4477 3 12 3C12.5523 3 13 3.44772 13 4V5H18C18.5523 5 19 5.44772 19 6C19 6.55228 18.5523 7 18 7H6C5.44772 7 5 6.55228 5 6Z" fill="black"/>
</svg>
