<svg width="24" height="24" viewBox="0 0 24 24" fill="none" xmlns="http://www.w3.org/2000/svg">
<path fill-rule="evenodd" clip-rule="evenodd" d="M13.0858 4.54149C13.2739 4.55769 13.463 4.57874 13.6529 4.60488L12.4365 6.50547C9.45034 6.40397 6.81242 7.76146 5.14021 9.15497C4.71593 9.50853 4.08537 9.4512 3.7318 9.02693C3.37824 8.60265 3.43556 7.97209 3.85984 7.61852C5.88191 5.93347 9.21821 4.20846 13.0858 4.54149ZM11.5032 7.96381C11.2055 7.98392 10.9139 8.01778 10.6293 8.06336C8.61004 8.38667 6.93769 9.29897 5.89536 10.0903C5.45548 10.4242 5.3696 11.0515 5.70354 11.4914C6.03749 11.9313 6.6648 12.0172 7.10469 11.6832C7.78601 11.166 8.81695 10.5777 10.0499 10.2345L11.5032 7.96381ZM7.46578 12.557C7.88918 12.2702 8.44406 11.9773 9.08809 11.7374L7.49247 14.2306C7.37927 14.1592 7.27865 14.0637 7.19877 13.9458C6.889 13.4886 7.00854 12.8668 7.46578 12.557ZM12.7713 13.2624C12.9069 13.2836 13.0425 13.3106 13.1776 13.3441C13.758 13.4877 14.3369 13.7498 14.8874 14.1769C15.3238 14.5154 15.952 14.4361 16.2905 13.9997C16.629 13.5633 16.5497 12.9351 16.1133 12.5966C15.4186 12.0577 14.6814 11.6974 13.9377 11.4783L12.7713 13.2624ZM14.8554 10.4823C14.7845 10.4533 14.7138 10.4256 14.6432 10.3992L15.759 8.69252C16.5463 9.02993 17.335 9.49139 18.1142 10.0974C18.5501 10.4365 18.6287 11.0647 18.2896 11.5007C17.9505 11.9366 17.3222 12.0152 16.8863 11.6761C16.1962 11.1393 15.5154 10.7524 14.8554 10.4823ZM16.4894 7.5754C16.5294 7.59569 16.5694 7.6163 16.6094 7.63724C17.3468 8.02282 18.0994 8.52152 18.8595 9.15497C19.2838 9.50854 19.9143 9.45123 20.2679 9.02696C20.6215 8.60269 20.5642 7.97212 20.1399 7.61855C19.2947 6.91419 18.4423 6.34382 17.5894 5.8929L16.4894 7.5754Z" fill="black"/>
<line x1="16.2554" y1="4.17465" x2="8.17465" y2="16.7446" stroke="black" stroke-width="1.7" stroke-linecap="round"/>
<circle cx="12" cy="16.8867" r="1.5" fill="black"/>
</svg>
