<svg width="24" height="24" viewBox="0 0 24 24" fill="none" xmlns="http://www.w3.org/2000/svg">
<path d="M6.00552 13.5662C4.87056 12.8822 4.87055 11.5816 6.00552 10.8975L14.9793 5.4888C15.9278 4.91714 17.1914 5.81554 16.4888 6.56201C16.4351 6.61906 16.3716 6.67049 16.2999 6.71493L7.64086 12.084C7.60427 12.1067 7.58307 12.1405 7.58307 12.1762C7.58307 12.2115 7.60378 12.245 7.63964 12.2677L16.3048 17.7506C16.3733 17.7939 16.4341 17.8436 16.4858 17.8986C17.1889 18.6455 15.9244 19.5446 14.9753 18.9725L6.00552 13.5662Z" fill="black"/>
<circle cx="6.5" cy="12" r="2.5" fill="black"/>
<circle cx="16.5" cy="18.5" r="2.5" fill="black"/>
<circle cx="16.5" cy="5.5" r="2.5" fill="black"/>
</svg>
